<svg xmlns="http://www.w3.org/2000/svg" xmlns:xlink="http://www.w3.org/1999/xlink" width="2000" zoomAndPan="magnify" viewBox="0 0 1500 599.999999" height="800" preserveAspectRatio="xMidYMid meet" version="1.0"><defs><g/><clipPath id="4530a15af0"><path d="M 1344 35 L 1475.519531 35 L 1475.519531 484 L 1344 484 Z M 1344 35 " clip-rule="nonzero"/></clipPath><clipPath id="2b5657897f"><rect x="0" width="132" y="0" height="449"/></clipPath><clipPath id="29b5b7c01d"><path d="M 159 0.28125 L 814 0.28125 L 814 141 L 159 141 Z M 159 0.28125 " clip-rule="nonzero"/></clipPath><clipPath id="ace01601a6"><rect x="0" width="655" y="0" height="141"/></clipPath><clipPath id="c435ab69f8"><rect x="0" width="1210" y="0" height="481"/></clipPath><clipPath id="e8afacdc09"><path d="M 0 118 L 132 118 L 132 566.679688 L 0 566.679688 Z M 0 118 " clip-rule="nonzero"/></clipPath><clipPath id="013ac7c063"><rect x="0" width="132" y="0" height="449"/></clipPath><clipPath id="92fb8b6349"><rect x="0" width="1476" y="0" height="567"/></clipPath></defs><g transform="matrix(1, 0, 0, 1, 12, 23)"><g clip-path="url(#92fb8b6349)"><g clip-path="url(#4530a15af0)"><g transform="matrix(1, 0, 0, 1, 1344, 35)"><g clip-path="url(#2b5657897f)"><g fill="#000000" fill-opacity="1"><g transform="translate(0.44174, 351.561692)"><g><path d="M 83.375 7.21875 C 83.375 19.1875 81.179688 28.21875 76.796875 34.3125 C 72.421875 40.40625 65.179688 44.867188 55.078125 47.703125 C 44.972656 50.535156 31 51.953125 13.15625 51.953125 L 13.15625 15.71875 C 23.726562 15.5 31.019531 13.570312 35.03125 9.9375 C 39.039062 6.300781 41.046875 0.691406 41.046875 -6.890625 L 41.046875 -56.609375 C 41.046875 -65.796875 44.195312 -73.25 50.5 -78.96875 C 56.8125 -84.6875 66.113281 -88.457031 78.40625 -90.28125 L 78.40625 -92.203125 C 54.144531 -95.835938 41.691406 -107.703125 41.046875 -127.796875 L 41.046875 -175.734375 C 41.046875 -183.222656 39.066406 -188.785156 35.109375 -192.421875 C 31.160156 -196.054688 23.84375 -198.03125 13.15625 -198.34375 L 13.15625 -234.421875 C 31 -234.421875 45 -233.003906 55.15625 -230.171875 C 65.3125 -227.335938 72.550781 -222.847656 76.875 -216.703125 C 81.207031 -210.554688 83.375 -201.601562 83.375 -189.84375 L 83.375 -137.25 C 83.375 -128.269531 86.660156 -121.535156 93.234375 -117.046875 C 99.816406 -112.554688 110.210938 -110.3125 124.421875 -110.3125 L 124.421875 -72 C 111.066406 -72 100.882812 -69.804688 93.875 -65.421875 C 86.875 -61.035156 83.375 -53.660156 83.375 -43.296875 Z M 83.375 7.21875 "/></g></g></g></g></g></g><g clip-path="url(#29b5b7c01d)"><g transform="matrix(1, 0, 0, 1, 159, -0.000000000000035527)"><g clip-path="url(#ace01601a6)"><g fill="#000000" fill-opacity="1"><g transform="translate(0.950384, 112.090444)"><g><path d="M 8.90625 0 L 8.90625 -15.578125 L 31.71875 -15.578125 L 31.71875 -64.546875 L 8.90625 -64.546875 L 8.90625 -80.125 L 70.109375 -80.125 L 70.109375 -64.546875 L 47.296875 -64.546875 L 47.296875 -15.578125 L 70.109375 -15.578125 L 70.109375 0 Z M 8.90625 0 "/></g></g></g><g fill="#000000" fill-opacity="1"><g transform="translate(79.96636, 112.090444)"><g><path d="M 8.90625 0 L 8.90625 -64.546875 L 24.484375 -80.125 L 78.734375 -80.125 L 94.3125 -64.546875 L 94.3125 0 L 78.734375 0 L 78.734375 -32.265625 L 24.484375 -32.265625 L 24.484375 0 Z M 24.484375 -47.859375 L 78.734375 -47.859375 L 78.734375 -64.546875 L 24.484375 -64.546875 Z M 24.484375 -47.859375 "/></g></g></g><g fill="#000000" fill-opacity="1"><g transform="translate(183.18793, 112.090444)"><g/></g></g><g fill="#000000" fill-opacity="1"><g transform="translate(252.744246, 112.090444)"><g><path d="M 8.90625 15.578125 L 8.90625 -64.546875 L 24.484375 -80.125 L 75.953125 -80.125 L 91.53125 -64.546875 L 91.53125 -15.578125 L 75.953125 0 L 24.484375 0 L 24.484375 15.578125 Z M 24.484375 -15.578125 L 75.953125 -15.578125 L 75.953125 -64.546875 L 24.484375 -64.546875 Z M 24.484375 -15.578125 "/></g></g></g><g fill="#000000" fill-opacity="1"><g transform="translate(353.183578, 112.090444)"><g><path d="M 8.90625 0 L 8.90625 -64.546875 L 24.484375 -80.125 L 78.734375 -80.125 L 94.3125 -64.546875 L 94.3125 0 L 78.734375 0 L 78.734375 -32.265625 L 24.484375 -32.265625 L 24.484375 0 Z M 24.484375 -47.859375 L 78.734375 -47.859375 L 78.734375 -64.546875 L 24.484375 -64.546875 Z M 24.484375 -47.859375 "/></g></g></g><g fill="#000000" fill-opacity="1"><g transform="translate(456.405148, 112.090444)"><g><path d="M 8.90625 0 L 8.90625 -64.546875 L 24.484375 -80.125 L 85.6875 -80.125 L 85.6875 -64.546875 L 24.484375 -64.546875 L 24.484375 0 Z M 8.90625 0 "/></g></g></g><g fill="#000000" fill-opacity="1"><g transform="translate(551.001713, 112.090444)"><g><path d="M 8.90625 0 L 8.90625 -64.546875 L 24.484375 -80.125 L 78.734375 -80.125 L 94.3125 -64.546875 L 94.3125 0 L 78.734375 0 L 78.734375 -32.265625 L 24.484375 -32.265625 L 24.484375 0 Z M 24.484375 -47.859375 L 78.734375 -47.859375 L 78.734375 -64.546875 L 24.484375 -64.546875 Z M 24.484375 -47.859375 "/></g></g></g></g></g></g><g transform="matrix(1, 0, 0, 1, 173, 64)"><g clip-path="url(#c435ab69f8)"><g fill="#ff00ff" fill-opacity="1"><g transform="translate(16.065481, 380.588351)"><g><path d="M 159.84375 -40.015625 L 159.84375 0 L 0 0 L 0 -279.875 L 159.84375 -279.875 L 159.84375 -239.859375 L 199.859375 -239.859375 L 199.859375 -199.859375 L 239.859375 -199.859375 L 239.859375 -80.015625 L 199.859375 -80.015625 L 199.859375 -40.015625 Z M 159.453125 -239.859375 L 40.015625 -239.859375 L 40.015625 -40.015625 L 159.453125 -40.015625 L 159.453125 -80.015625 L 199.46875 -80.015625 L 199.46875 -199.859375 L 159.453125 -199.859375 Z M 159.453125 -239.859375 "/></g></g><g transform="translate(335.747227, 380.588351)"><g><path d="M 40.015625 -40.015625 L 199.859375 -40.015625 L 199.859375 0 L 0 0 L 0 -279.875 L 199.859375 -279.875 L 199.859375 -239.859375 L 40.015625 -239.859375 L 40.015625 -159.84375 L 159.84375 -159.84375 L 159.84375 -119.828125 L 40.015625 -119.828125 Z M 40.015625 -40.015625 "/></g></g><g transform="translate(615.615129, 380.588351)"><g><path d="M 80.015625 -199.859375 L 80.015625 -80.015625 L 160.03125 -80.015625 L 160.03125 0 L 80.015625 0 L 80.015625 -80.015625 L 40.015625 -80.015625 L 40.015625 -199.859375 L 0 -199.859375 L 0 -279.875 L 40.015625 -279.875 L 40.015625 -199.859375 Z M 159.84375 -80.015625 L 159.84375 -199.859375 L 199.859375 -199.859375 L 199.859375 -80.015625 Z M 199.859375 -279.875 L 239.859375 -279.875 L 239.859375 -199.859375 L 199.859375 -199.859375 Z M 199.859375 -279.875 "/></g></g><g transform="translate(935.296875, 380.588351)"><g><path d="M 40.015625 -159.84375 L 159.84375 -159.84375 L 159.84375 -119.828125 L 199.859375 -119.828125 L 199.859375 -40.015625 L 159.84375 -40.015625 L 159.84375 -119.828125 L 40.015625 -119.828125 Z M 40.015625 -279.875 L 159.84375 -279.875 L 159.84375 -239.859375 L 199.859375 -239.859375 L 199.859375 -199.859375 L 159.84375 -199.859375 L 159.84375 -239.859375 L 40.015625 -239.859375 Z M 40.015625 -40.015625 L 159.84375 -40.015625 L 159.84375 0 L 40.015625 0 Z M 40.015625 -159.84375 L 0 -159.84375 L 0 -239.859375 L 40.015625 -239.859375 Z M 40.015625 -40.015625 L 0 -40.015625 L 0 -80.015625 L 40.015625 -80.015625 Z M 40.015625 -40.015625 "/></g></g></g><g fill="#00ffff" fill-opacity="1"><g transform="translate(1.076731, 380.588351)"><g><path d="M 159.84375 -40.015625 L 159.84375 0 L 0 0 L 0 -279.875 L 159.84375 -279.875 L 159.84375 -239.859375 L 199.859375 -239.859375 L 199.859375 -199.859375 L 239.859375 -199.859375 L 239.859375 -80.015625 L 199.859375 -80.015625 L 199.859375 -40.015625 Z M 159.453125 -239.859375 L 40.015625 -239.859375 L 40.015625 -40.015625 L 159.453125 -40.015625 L 159.453125 -80.015625 L 199.46875 -80.015625 L 199.46875 -199.859375 L 159.453125 -199.859375 Z M 159.453125 -239.859375 "/></g></g><g transform="translate(320.758478, 380.588351)"><g><path d="M 40.015625 -40.015625 L 199.859375 -40.015625 L 199.859375 0 L 0 0 L 0 -279.875 L 199.859375 -279.875 L 199.859375 -239.859375 L 40.015625 -239.859375 L 40.015625 -159.84375 L 159.84375 -159.84375 L 159.84375 -119.828125 L 40.015625 -119.828125 Z M 40.015625 -40.015625 "/></g></g><g transform="translate(600.626379, 380.588351)"><g><path d="M 80.015625 -199.859375 L 80.015625 -80.015625 L 160.03125 -80.015625 L 160.03125 0 L 80.015625 0 L 80.015625 -80.015625 L 40.015625 -80.015625 L 40.015625 -199.859375 L 0 -199.859375 L 0 -279.875 L 40.015625 -279.875 L 40.015625 -199.859375 Z M 159.84375 -80.015625 L 159.84375 -199.859375 L 199.859375 -199.859375 L 199.859375 -80.015625 Z M 199.859375 -279.875 L 239.859375 -279.875 L 239.859375 -199.859375 L 199.859375 -199.859375 Z M 199.859375 -279.875 "/></g></g><g transform="translate(920.308126, 380.588351)"><g><path d="M 40.015625 -159.84375 L 159.84375 -159.84375 L 159.84375 -119.828125 L 199.859375 -119.828125 L 199.859375 -40.015625 L 159.84375 -40.015625 L 159.84375 -119.828125 L 40.015625 -119.828125 Z M 40.015625 -279.875 L 159.84375 -279.875 L 159.84375 -239.859375 L 199.859375 -239.859375 L 199.859375 -199.859375 L 159.84375 -199.859375 L 159.84375 -239.859375 L 40.015625 -239.859375 Z M 40.015625 -40.015625 L 159.84375 -40.015625 L 159.84375 0 L 40.015625 0 Z M 40.015625 -159.84375 L 0 -159.84375 L 0 -239.859375 L 40.015625 -239.859375 Z M 40.015625 -40.015625 L 0 -40.015625 L 0 -80.015625 L 40.015625 -80.015625 Z M 40.015625 -40.015625 "/></g></g></g><g fill="#000000" fill-opacity="1"><g transform="translate(8.571106, 380.588351)"><g><path d="M 159.84375 -40.015625 L 159.84375 0 L 0 0 L 0 -279.875 L 159.84375 -279.875 L 159.84375 -239.859375 L 199.859375 -239.859375 L 199.859375 -199.859375 L 239.859375 -199.859375 L 239.859375 -80.015625 L 199.859375 -80.015625 L 199.859375 -40.015625 Z M 159.453125 -239.859375 L 40.015625 -239.859375 L 40.015625 -40.015625 L 159.453125 -40.015625 L 159.453125 -80.015625 L 199.46875 -80.015625 L 199.46875 -199.859375 L 159.453125 -199.859375 Z M 159.453125 -239.859375 "/></g></g><g transform="translate(328.252853, 380.588351)"><g><path d="M 40.015625 -40.015625 L 199.859375 -40.015625 L 199.859375 0 L 0 0 L 0 -279.875 L 199.859375 -279.875 L 199.859375 -239.859375 L 40.015625 -239.859375 L 40.015625 -159.84375 L 159.84375 -159.84375 L 159.84375 -119.828125 L 40.015625 -119.828125 Z M 40.015625 -40.015625 "/></g></g><g transform="translate(608.120754, 380.588351)"><g><path d="M 80.015625 -199.859375 L 80.015625 -80.015625 L 160.03125 -80.015625 L 160.03125 0 L 80.015625 0 L 80.015625 -80.015625 L 40.015625 -80.015625 L 40.015625 -199.859375 L 0 -199.859375 L 0 -279.875 L 40.015625 -279.875 L 40.015625 -199.859375 Z M 159.84375 -80.015625 L 159.84375 -199.859375 L 199.859375 -199.859375 L 199.859375 -80.015625 Z M 199.859375 -279.875 L 239.859375 -279.875 L 239.859375 -199.859375 L 199.859375 -199.859375 Z M 199.859375 -279.875 "/></g></g><g transform="translate(927.802501, 380.588351)"><g><path d="M 40.015625 -159.84375 L 159.84375 -159.84375 L 159.84375 -119.828125 L 199.859375 -119.828125 L 199.859375 -40.015625 L 159.84375 -40.015625 L 159.84375 -119.828125 L 40.015625 -119.828125 Z M 40.015625 -279.875 L 159.84375 -279.875 L 159.84375 -239.859375 L 199.859375 -239.859375 L 199.859375 -199.859375 L 159.84375 -199.859375 L 159.84375 -239.859375 L 40.015625 -239.859375 Z M 40.015625 -40.015625 L 159.84375 -40.015625 L 159.84375 0 L 40.015625 0 Z M 40.015625 -159.84375 L 0 -159.84375 L 0 -239.859375 L 40.015625 -239.859375 Z M 40.015625 -40.015625 L 0 -40.015625 L 0 -80.015625 L 40.015625 -80.015625 Z M 40.015625 -40.015625 "/></g></g></g></g></g><g clip-path="url(#e8afacdc09)"><g transform="matrix(1, 0, 0, 1, -0.000000000000001776, 118)"><g clip-path="url(#013ac7c063)"><g fill="#000000" fill-opacity="1"><g transform="translate(131.085287, 97.412043)"><g><path d="M -83.375 -7.21875 C -83.375 -19.1875 -81.179688 -28.21875 -76.796875 -34.3125 C -72.421875 -40.40625 -65.179688 -44.867188 -55.078125 -47.703125 C -44.972656 -50.535156 -31 -51.953125 -13.15625 -51.953125 L -13.15625 -15.71875 C -23.726562 -15.5 -31.019531 -13.570312 -35.03125 -9.9375 C -39.039062 -6.300781 -41.046875 -0.691406 -41.046875 6.890625 L -41.046875 56.609375 C -41.046875 65.796875 -44.195312 73.25 -50.5 78.96875 C -56.8125 84.6875 -66.113281 88.457031 -78.40625 90.28125 L -78.40625 92.203125 C -54.144531 95.835938 -41.691406 107.703125 -41.046875 127.796875 L -41.046875 175.734375 C -41.046875 183.222656 -39.066406 188.785156 -35.109375 192.421875 C -31.160156 196.054688 -23.84375 198.03125 -13.15625 198.34375 L -13.15625 234.421875 C -31 234.421875 -45 233.003906 -55.15625 230.171875 C -65.3125 227.335938 -72.550781 222.847656 -76.875 216.703125 C -81.207031 210.554688 -83.375 201.601562 -83.375 189.84375 L -83.375 137.25 C -83.375 128.269531 -86.660156 121.535156 -93.234375 117.046875 C -99.816406 112.554688 -110.210938 110.3125 -124.421875 110.3125 L -124.421875 72 C -111.066406 72 -100.882812 69.804688 -93.875 65.421875 C -86.875 61.035156 -83.375 53.660156 -83.375 43.296875 Z M -83.375 -7.21875 "/></g></g></g></g></g></g><g fill="#000000" fill-opacity="1"><g transform="translate(1229.308892, 535.803759)"><g><path d="M 6.015625 0 L 6.015625 -10.515625 L 16.53125 -10.515625 L 16.53125 0 Z M 6.015625 0 "/></g></g></g><g fill="#000000" fill-opacity="1"><g transform="translate(1251.842221, 535.803759)"><g><path d="M 16.53125 0 L 6.015625 -10.515625 L 6.015625 -43.5625 L 16.53125 -54.078125 L 57.84375 -54.078125 L 57.84375 -43.5625 L 16.53125 -43.5625 L 16.53125 -10.515625 L 57.84375 -10.515625 L 57.84375 0 Z M 16.53125 0 "/></g></g></g><g fill="#000000" fill-opacity="1"><g transform="translate(1315.686655, 535.803759)"><g><path d="M 16.53125 0 L 6.015625 -10.515625 L 6.015625 -43.5625 L 16.53125 -54.078125 L 53.140625 -54.078125 L 63.65625 -43.5625 L 63.65625 -10.515625 L 53.140625 0 Z M 16.53125 -10.515625 L 53.140625 -10.515625 L 53.140625 -43.5625 L 16.53125 -43.5625 Z M 16.53125 -10.515625 "/></g></g></g><g fill="#000000" fill-opacity="1"><g transform="translate(1385.352206, 535.803759)"><g><path d="M 6.015625 0 L 6.015625 -43.5625 L 16.53125 -54.078125 L 61.3125 -54.078125 L 71.828125 -43.5625 L 71.828125 0 L 61.3125 0 L 61.3125 -43.5625 L 44.21875 -43.5625 L 44.21875 -14.453125 L 33.703125 -14.453125 L 33.703125 -43.5625 L 16.53125 -43.5625 L 16.53125 0 Z M 6.015625 0 "/></g></g></g></g></g></svg>